# This file uses centimeters as units for non-parametric coordinates.

mtllib Bladje.mtl
g default
v -5.130787 1.345099 1.400208
v -2.565393 1.345099 1.400208
v 0.000000 1.345099 1.400208
v 2.565393 1.345099 1.400208
v 5.130787 1.345099 1.400208
v -5.130787 5.301231 0.081606
v -2.565393 5.301231 0.081606
v 0.000000 5.301231 0.081606
v 2.565393 5.301231 0.081606
v 5.130787 5.301231 0.081606
v -5.130787 9.257361 -0.485868
v -2.565393 9.257361 -0.485868
v 0.000000 9.257361 -0.485868
v 2.565393 9.257361 -0.485868
v 5.130787 9.257361 -0.485868
v -5.130787 13.213495 0.535106
v -2.565393 13.213495 0.535106
v 0.000000 13.213495 0.535106
v 2.565393 13.213495 0.535106
v 5.130787 13.213495 0.535106
v -5.130787 16.560604 0.081606
v -2.565393 16.560604 0.081606
v 0.000000 16.560604 0.081606
v 2.565393 16.560604 0.081606
v 5.130787 16.560604 0.081606
v -5.130787 16.560604 -0.081606
v -2.565393 16.560604 -0.081606
v 0.000000 16.560604 -0.081606
v 2.565393 16.560604 -0.081606
v 5.130787 16.560604 -0.081606
v -5.130787 13.213495 0.371894
v -2.565393 13.213495 0.371894
v 0.000000 13.213495 0.371894
v 2.565393 13.213495 0.371894
v 5.130787 13.213495 0.371894
v -5.130787 9.257361 -0.649080
v -2.565393 9.257361 -0.649080
v 0.000000 9.257361 -0.649080
v 2.565393 9.257361 -0.649080
v 5.130787 9.257361 -0.649080
v -5.130787 5.301231 -0.081606
v -2.565393 5.301231 -0.081606
v 0.000000 5.301231 -0.081606
v 2.565393 5.301231 -0.081606
v 5.130787 5.301231 -0.081606
v -5.130787 1.345099 1.236997
v -2.565393 1.345099 1.236997
v 0.000000 1.345099 1.236997
v 2.565393 1.345099 1.236997
v 5.130787 1.345099 1.236997
v 2.565393 1.345099 1.400208
v 5.130787 1.345099 1.400208
v 2.565393 5.301231 0.081606
v 5.130787 5.301231 0.081606
v 2.565393 9.257361 -0.485868
v 5.130787 9.257361 -0.485868
v 2.565393 13.213495 0.535106
v 5.130787 13.213495 0.535106
v 2.565393 13.213495 0.371894
v 5.130787 13.213495 0.371894
v 2.565393 9.257361 -0.649080
v 5.130787 9.257361 -0.649080
v 2.565393 5.301231 -0.081606
v 5.130787 5.301231 -0.081606
v 2.565393 1.345099 1.236997
v 5.130787 1.345099 1.236997
v 3.273550 16.560604 0.081606
v 3.702317 16.560604 0.081606
v 3.287200 16.560604 -0.081606
v 3.767511 16.560604 -0.081606
v 3.224955 15.136693 0.244691
v 3.283832 15.291515 0.060501
vt 0.053534 0.090357
vt 0.204378 0.090357
vt 0.204378 0.303377
vt 0.053534 0.303377
vt 0.355221 0.090357
vt 0.355221 0.303377
vt 0.506065 0.090357
vt 0.506065 0.303377
vt 0.656908 0.090357
vt 0.656908 0.303377
vt 0.204378 0.516396
vt 0.053534 0.516396
vt 0.355221 0.516396
vt 0.506065 0.516396
vt 0.656908 0.516396
vt 0.204378 0.729416
vt 0.053534 0.729416
vt 0.355221 0.729416
vt 0.506065 0.729416
vt 0.656908 0.729416
vt 0.204378 0.909643
vt 0.053534 0.909643
vt 0.355221 0.909643
vt 0.506065 0.909643
vt 0.656908 0.909643
vt 0.572915 0.909643
vt 0.544846 0.832972
vt 0.547704 0.909643
vt 0.204378 0.909643
vt 0.053534 0.909643
vt 0.355221 0.909643
vt 0.506065 0.909643
vt 0.204378 0.729416
vt 0.053534 0.729416
vt 0.355221 0.729416
vt 0.506065 0.729416
vt 0.548506 0.909643
vt 0.548308 0.841309
vt 0.576748 0.909643
vt 0.656908 0.909643
vt 0.656908 0.729416
vt 0.204378 0.516396
vt 0.053534 0.516396
vt 0.355221 0.516396
vt 0.506065 0.516396
vt 0.656908 0.516396
vt 0.204378 0.303377
vt 0.053534 0.303377
vt 0.355221 0.303377
vt 0.506065 0.303377
vt 0.656908 0.303377
vt 0.204378 0.090357
vt 0.053534 0.090357
vt 0.355221 0.090357
vt 0.506065 0.090357
vt 0.656908 0.090357
vt 0.656908 0.090357
vt 0.506065 0.090357
vt 0.656908 0.303377
vt 0.506065 0.303377
vt 0.656908 0.516396
vt 0.506065 0.516396
vt 0.656908 0.729416
vt 0.506065 0.729416
vt 0.656908 0.729416
vt 0.506065 0.729416
vt 0.656908 0.516396
vt 0.506065 0.516396
vt 0.656908 0.303377
vt 0.506065 0.303377
vt 0.656908 0.090357
vt 0.506065 0.090357
vn 0.000000 0.316204 0.948691
vn 0.000000 0.316204 0.948691
vn 0.000000 0.231877 0.972745
vn 0.000000 0.231877 0.972745
vn 0.000000 0.316204 0.948691
vn 0.000000 0.231877 0.972745
vn 0.000000 0.316204 0.948691
vn 0.000000 0.231877 0.972745
vn 0.000000 0.316204 0.948691
vn 0.000000 0.316204 0.948691
vn 0.000000 -0.057222 0.998362
vn 0.000000 -0.057222 0.998362
vn 0.000000 -0.057222 0.998362
vn 0.000000 -0.057222 0.998362
vn 0.000000 0.141988 0.989868
vn 0.000000 0.141988 0.989868
vn 0.000000 -0.077468 0.996995
vn 0.000000 -0.077468 0.996995
vn 0.000000 -0.077468 0.996995
vn 0.000000 -0.079033 0.996872
vn 0.000000 -0.249886 0.968275
vn 0.000000 -0.249886 0.968275
vn 0.000000 0.134263 0.990946
vn 0.000000 0.134263 0.990946
vn 0.000000 0.134263 0.990946
vn 0.000000 0.134632 0.990896
vn 0.000000 0.135015 0.990844
vn 0.000000 0.135015 0.990844
vn 0.000000 0.135015 0.990844
vn 0.000000 0.135015 0.990844
vn 0.000000 0.135015 0.990844
vn 0.000000 1.000000 0.000000
vn 0.000000 1.000000 0.000000
vn 0.000000 1.000000 0.000000
vn 0.000000 1.000000 0.000000
vn 0.000000 1.000000 0.000000
vn 0.000000 1.000000 0.000000
vn 0.000000 1.000000 0.000000
vn 0.000000 1.000000 0.000000
vn 0.000000 -0.134263 -0.990946
vn 0.000000 -0.134263 -0.990946
vn 0.000000 0.077468 -0.996995
vn 0.000000 0.077468 -0.996995
vn 0.000000 -0.134263 -0.990946
vn 0.000000 0.077468 -0.996995
vn 0.000000 -0.134677 -0.990890
vn 0.000000 0.079009 -0.996874
vn 0.000000 -0.135105 -0.990831
vn 0.000000 -0.135105 -0.990831
vn 0.000000 -0.135105 -0.990831
vn 0.000000 -0.135105 -0.990831
vn 0.000000 -0.135105 -0.990831
vn 0.000000 0.057222 -0.998362
vn 0.000000 0.057222 -0.998362
vn 0.000000 0.057222 -0.998362
vn 0.000000 0.057222 -0.998362
vn 0.000000 0.249886 -0.968275
vn 0.000000 0.249886 -0.968275
vn 0.000000 -0.231877 -0.972745
vn 0.000000 -0.231877 -0.972745
vn 0.000000 -0.231877 -0.972745
vn 0.000000 -0.231877 -0.972745
vn 0.000000 -0.141988 -0.989868
vn 0.000000 -0.141988 -0.989868
vn 0.000000 -0.316204 -0.948691
vn 0.000000 -0.316204 -0.948691
vn 0.000000 -0.316204 -0.948691
vn 0.000000 -0.316204 -0.948691
vn 0.000000 -0.316204 -0.948691
vn 0.000000 -0.316204 -0.948691
vn 0.000000 -1.000000 0.000000
vn 0.000000 -1.000000 0.000000
vn 0.000000 -1.000000 0.000000
vn 0.000000 -1.000000 0.000000
vn 0.000000 -1.000000 0.000000
vn 0.000000 -1.000000 0.000000
vn 0.000000 -1.000000 0.000000
vn 0.000000 -1.000000 0.000000
vn 0.000000 -1.000000 0.000000
vn 0.000000 -1.000000 0.000000
vn 1.000000 0.000000 0.000000
vn 1.000000 0.000000 0.000000
vn 1.000000 0.000000 0.000000
vn 1.000000 0.000000 0.000000
vn 1.000000 0.000000 0.000000
vn 1.000000 0.000000 0.000000
vn 1.000000 0.000000 0.000000
vn 1.000000 0.000000 0.000000
vn 1.000000 0.000000 0.000000
vn 1.000000 0.000000 0.000000
vn -1.000000 0.000000 0.000000
vn -1.000000 0.000000 0.000000
vn -1.000000 0.000000 0.000000
vn -1.000000 0.000000 0.000000
vn -1.000000 -0.000000 0.000000
vn -1.000000 -0.000000 0.000000
vn -1.000000 -0.000000 0.000000
vn -1.000000 -0.000000 0.000000
vn -1.000000 0.000000 0.000000
vn -1.000000 0.000000 0.000000
vn 0.000000 0.000000 0.000000
vn 0.000000 0.000000 0.000000
vn 0.000000 0.000000 0.000000
vn 0.000000 0.000000 0.000000
vn 0.000000 0.000000 0.000000
vn 0.000000 0.000000 0.000000
vn 0.000000 0.000000 0.000000
vn 0.000000 0.000000 0.000000
vn 0.000000 0.000000 0.000000
vn 0.000000 0.000000 0.000000
vn 0.000000 0.000000 0.000000
vn 0.000000 0.000000 0.000000
vn 0.000000 0.000000 0.000000
vn 0.000000 0.000000 0.000000
vn 0.000000 0.000000 0.000000
vn 0.000000 0.000000 0.000000
vn 0.000000 0.000000 0.000000
vn 0.000000 0.000000 0.000000
vn 0.000000 0.000000 0.000000
vn 0.000000 0.000000 0.000000
vn 0.000000 0.000000 0.000000
vn 0.000000 0.000000 0.000000
vn 0.000000 0.000000 0.000000
vn 0.000000 0.000000 0.000000
vn 0.000000 0.000000 0.000000
vn 0.000000 0.000000 0.000000
vn 0.000000 0.000000 0.000000
vn 0.000000 0.000000 0.000000
vn 0.000000 0.000000 0.000000
vn 0.000000 0.000000 0.000000
vn 0.000000 0.000000 0.000000
vn 0.000000 0.000000 0.000000
vn 0.000000 1.000000 -0.000000
vn 0.000000 1.000000 -0.000000
vn 0.000000 1.000000 -0.000000
vn 0.000000 1.000000 -0.000000
vn 0.000000 1.000000 -0.000003
vn 0.000000 1.000000 -0.000003
vn 0.000000 1.000000 -0.000003
vn 0.000000 1.000000 -0.000003
vn -0.930659 0.310116 -0.194172
vn -0.930659 0.310116 -0.194172
vn -0.930659 0.310116 -0.194172
vn -0.930659 0.310116 -0.194172
vn 0.978482 0.004498 0.206285
vn 0.978482 0.004498 0.206285
vn 0.978482 0.004498 0.206285
vn 0.978482 0.004498 0.206285
s 1
g pCube1
usemtl initialShadingGroup
f 1/1/1 2/2/2 7/3/3 6/4/4
f 2/2/2 3/5/5 8/6/6 7/3/3
f 3/5/5 4/7/7 9/8/8 8/6/6
f 4/7/7 5/9/9 10/10/10 9/8/8
f 6/4/4 7/3/3 12/11/11 11/12/12
f 7/3/3 8/6/6 13/13/13 12/11/11
f 8/6/6 9/8/8 14/14/14 13/13/13
f 9/8/8 10/10/15 15/15/16 14/14/14
f 11/12/12 12/11/11 17/16/17 16/17/18
f 12/11/11 13/13/13 18/18/19 17/16/17
f 13/13/13 14/14/14 19/19/20 18/18/19
f 14/14/14 15/15/21 20/20/22 19/19/20
f 16/17/18 17/16/17 22/21/23 21/22/24
f 17/16/17 18/18/19 23/23/25 22/21/23
f 18/18/19 19/19/20 24/24/26 23/23/25
f 19/19/20 20/20/27 25/25/28 68/26/29 71/27/30 67/28/31 24/24/26
s 2
f 21/22/32 22/21/33 27/29/34 26/30/35
f 22/21/33 23/23/36 28/31/37 27/29/34
f 23/23/36 24/24/38 29/32/39 28/31/37
s 3
f 26/30/40 27/29/41 32/33/42 31/34/43
f 27/29/41 28/31/44 33/35/45 32/33/42
f 28/31/44 29/32/46 34/36/47 33/35/45
f 29/32/46 69/37/48 72/38/49 70/39/50 30/40/51 35/41/52 34/36/47
f 31/34/43 32/33/42 37/42/53 36/43/54
f 32/33/42 33/35/45 38/44/55 37/42/53
f 33/35/45 34/36/47 39/45/56 38/44/55
f 34/36/47 35/41/57 40/46/58 39/45/56
f 36/43/54 37/42/53 42/47/59 41/48/60
f 37/42/53 38/44/55 43/49/61 42/47/59
f 38/44/55 39/45/56 44/50/62 43/49/61
f 39/45/56 40/46/63 45/51/64 44/50/62
f 41/48/60 42/47/59 47/52/65 46/53/66
f 42/47/59 43/49/61 48/54/67 47/52/65
f 43/49/61 44/50/62 49/55/68 48/54/67
f 44/50/62 45/51/69 50/56/70 49/55/68
s 4
f 46/53/71 47/52/72 2/2/73 1/1/74
f 47/52/72 48/54/75 3/5/76 2/2/73
f 48/54/75 49/55/77 4/7/78 3/5/76
f 49/55/77 50/56/79 5/9/80 4/7/78
s 5
f 5/9/81 50/56/82 45/51/83 10/10/84
f 10/10/84 45/51/83 40/46/85 15/15/86
f 15/15/86 40/46/85 35/41/87 20/20/88
f 20/20/88 35/41/87 30/40/89 25/25/90
s 6
f 46/53/91 1/1/92 6/4/93 41/48/94
f 41/48/94 6/4/93 11/12/95 36/43/96
f 36/43/96 11/12/95 16/17/97 31/34/98
f 31/34/98 16/17/97 21/22/99 26/30/100
s off
f 4/7/101 5/9/102 52/57/103 51/58/104
f 9/8/105 10/10/106 54/59/107 53/60/108
f 14/14/109 15/15/110 56/61/111 55/62/112
f 19/19/113 20/20/114 58/63/115 57/64/116
f 34/36/117 35/41/118 60/65/119 59/66/120
f 39/45/121 40/46/122 62/67/123 61/68/124
f 44/50/125 45/51/126 64/69/127 63/70/128
f 49/55/129 50/56/130 66/71/131 65/72/132
f 68/26/133 25/25/134 30/40/135 70/39/136
f 24/24/137 67/28/138 69/37/139 29/32/140
f 71/27/141 68/26/142 70/39/143 72/38/144
f 67/28/145 71/27/146 72/38/147 69/37/148
