# This file uses centimeters as units for non-parametric coordinates.

mtllib Portal.mtl
g default
v 94.575991 19.771904 -94.492901
v 96.006762 19.771904 -94.492901
v 94.575991 21.592752 -94.492901
v 96.006762 21.592752 -94.492901
v 94.575991 21.592752 -95.604313
v 96.006762 21.592752 -95.604313
v 94.575991 19.771904 -95.941387
v 96.006762 19.771904 -95.941387
v 94.250033 19.171862 -96.460430
v 96.332712 19.171862 -96.460430
v 96.332712 19.171862 -94.355484
v 94.250033 19.171862 -94.355484
v 94.575991 22.663340 -94.492901
v 96.006762 22.663340 -94.492901
v 96.006762 22.663340 -95.604313
v 94.575991 22.663340 -95.604313
v 94.575991 24.356091 -94.994159
v 96.006762 24.356091 -94.994159
v 96.006762 23.639776 -95.843937
v 94.575991 23.639776 -95.843937
v 94.575991 25.837864 -95.727749
v 96.006762 25.837864 -95.727749
v 96.006762 25.121550 -96.577533
v 94.575991 25.121550 -96.577533
v 94.575991 26.843601 -96.977001
v 96.006762 26.843601 -96.977001
v 96.006762 25.816969 -97.402759
v 94.575991 25.816969 -97.402759
v 94.575991 27.482517 -98.612797
v 96.006762 27.482517 -98.612797
v 96.006762 26.396032 -98.846893
v 94.575991 26.396032 -98.846893
v 94.575991 27.636589 -99.767490
v 96.006762 27.636589 -99.767490
v 96.006762 26.517817 -99.767490
v 94.575991 26.517817 -99.767490
v 94.575991 19.771904 -105.042083
v 96.006762 19.771904 -105.042083
v 94.575991 21.592752 -105.042083
v 96.006762 21.592752 -105.042083
v 94.575991 21.592752 -103.930668
v 96.006762 21.592752 -103.930668
v 94.575991 19.771904 -103.593593
v 96.006762 19.771904 -103.593593
v 94.250033 19.171862 -103.074550
v 96.332712 19.171862 -103.074550
v 96.332712 19.171862 -105.179497
v 94.250033 19.171862 -105.179497
v 94.575991 22.663340 -105.042083
v 96.006762 22.663340 -105.042083
v 96.006762 22.663340 -103.930668
v 94.575991 22.663340 -103.930668
v 94.575991 24.356091 -104.540821
v 96.006762 24.356091 -104.540821
v 96.006762 23.639776 -103.691044
v 94.575991 23.639776 -103.691044
v 94.575991 25.837864 -103.807232
v 96.006762 25.837864 -103.807232
v 96.006762 25.121550 -102.957447
v 94.575991 25.121550 -102.957447
v 94.575991 26.843601 -102.557976
v 96.006762 26.843601 -102.557976
v 96.006762 25.816969 -102.132221
v 94.575991 25.816969 -102.132221
v 94.575991 27.482517 -100.922184
v 96.006762 27.482517 -100.922184
v 96.006762 26.396032 -100.688087
v 94.575991 26.396032 -100.688087
vt 0.375000 0.000000
vt 0.625000 0.000000
vt 0.625000 0.250000
vt 0.375000 0.250000
vt 0.375000 0.500000
vt 0.625000 0.500000
vt 0.625000 0.750000
vt 0.375000 0.750000
vt 0.375000 0.750000
vt 0.625000 0.750000
vt 0.625000 1.000000
vt 0.375000 1.000000
vt 0.875000 0.000000
vt 0.875000 0.250000
vt 0.125000 0.000000
vt 0.125000 0.250000
vt 0.625000 1.000000
vt 0.375000 1.000000
vt 0.625000 0.250000
vt 0.375000 0.250000
vt 0.625000 0.500000
vt 0.375000 0.500000
vt 0.625000 0.250000
vt 0.375000 0.250000
vt 0.625000 0.500000
vt 0.375000 0.500000
vt 0.625000 0.250000
vt 0.375000 0.250000
vt 0.625000 0.500000
vt 0.375000 0.500000
vt 0.625000 0.250000
vt 0.375000 0.250000
vt 0.625000 0.500000
vt 0.375000 0.500000
vt 0.625000 0.250000
vt 0.375000 0.250000
vt 0.625000 0.500000
vt 0.375000 0.500000
vt 0.625000 0.250000
vt 0.375000 0.250000
vt 0.625000 0.500000
vt 0.375000 0.500000
vt 0.375000 0.000000
vt 0.375000 0.250000
vt 0.625000 0.250000
vt 0.625000 0.000000
vt 0.375000 0.500000
vt 0.375000 0.750000
vt 0.625000 0.750000
vt 0.625000 0.500000
vt 0.375000 0.750000
vt 0.375000 1.000000
vt 0.625000 1.000000
vt 0.625000 0.750000
vt 0.875000 0.250000
vt 0.875000 0.000000
vt 0.125000 0.000000
vt 0.125000 0.250000
vt 0.625000 1.000000
vt 0.375000 1.000000
vt 0.375000 0.250000
vt 0.625000 0.250000
vt 0.625000 0.500000
vt 0.375000 0.500000
vt 0.375000 0.250000
vt 0.625000 0.250000
vt 0.625000 0.500000
vt 0.375000 0.500000
vt 0.375000 0.250000
vt 0.625000 0.250000
vt 0.625000 0.500000
vt 0.375000 0.500000
vt 0.375000 0.250000
vt 0.625000 0.250000
vt 0.625000 0.500000
vt 0.375000 0.500000
vt 0.375000 0.250000
vt 0.625000 0.250000
vt 0.625000 0.500000
vt 0.375000 0.500000
vt 0.375000 0.250000
vt 0.625000 0.250000
vt 0.625000 0.500000
vt 0.375000 0.500000
vn 0.000000 0.000000 1.000000
vn 0.000000 0.000000 1.000000
vn 0.000000 0.000000 1.000000
vn 0.000000 0.000000 1.000000
vn 0.000000 0.182026 -0.983294
vn 0.000000 0.182026 -0.983294
vn 0.000000 0.182026 -0.983294
vn 0.000000 0.182026 -0.983294
vn 0.000000 -1.000000 0.000000
vn 0.000000 -1.000000 0.000000
vn 0.000000 -1.000000 0.000000
vn 0.000000 -1.000000 0.000000
vn 1.000000 0.000000 0.000000
vn 1.000000 0.000000 0.000000
vn 1.000000 0.000000 0.000000
vn 1.000000 0.000000 0.000000
vn -1.000000 -0.000001 0.000000
vn -1.000000 -0.000001 0.000000
vn -1.000000 -0.000001 0.000000
vn -1.000000 -0.000001 0.000000
vn 0.000000 0.654215 -0.756309
vn 0.000000 0.654215 -0.756309
vn 0.000000 0.654215 -0.756309
vn 0.000000 0.654215 -0.756309
vn 0.878721 0.477336 0.000000
vn 0.878721 0.477336 0.000000
vn 0.878721 0.477336 0.000000
vn 0.878721 0.477336 0.000000
vn 0.000000 0.223232 0.974765
vn 0.000000 0.223232 0.974765
vn 0.000000 0.223232 0.974765
vn 0.000000 0.223232 0.974765
vn -0.878719 0.477340 0.000000
vn -0.878719 0.477340 0.000000
vn -0.878719 0.477340 0.000000
vn -0.878719 0.477340 0.000000
vn 0.000000 0.000000 1.000000
vn 0.000000 0.000000 1.000000
vn 0.000000 0.000000 1.000000
vn 0.000000 0.000000 1.000000
vn 1.000000 0.000000 0.000000
vn 1.000000 0.000000 0.000000
vn 1.000000 0.000000 0.000000
vn 1.000000 0.000000 0.000000
vn 0.000000 0.000000 -1.000000
vn 0.000000 0.000000 -1.000000
vn 0.000000 0.000000 -1.000000
vn 0.000000 0.000000 -1.000000
vn -1.000000 0.000000 0.000000
vn -1.000000 0.000000 0.000000
vn -1.000000 0.000000 0.000000
vn -1.000000 0.000000 0.000000
vn 0.000000 0.283933 0.958844
vn 0.000000 0.283933 0.958844
vn 0.000000 0.283933 0.958844
vn 0.000000 0.283933 0.958844
vn 1.000000 0.000000 0.000000
vn 1.000000 0.000000 0.000000
vn 1.000000 0.000000 0.000000
vn 1.000000 0.000000 0.000000
vn 0.000000 -0.238333 -0.971183
vn 0.000000 -0.238333 -0.971183
vn 0.000000 -0.238333 -0.971183
vn 0.000000 -0.238333 -0.971183
vn -1.000000 0.000001 0.000000
vn -1.000000 0.000001 0.000000
vn -1.000000 0.000001 0.000000
vn -1.000000 0.000001 0.000000
vn 0.000000 0.443679 0.896186
vn 0.000000 0.443679 0.896186
vn 0.000000 0.443679 0.896186
vn 0.000000 0.443679 0.896186
vn 1.000000 0.000000 0.000000
vn 1.000000 0.000000 0.000000
vn 1.000000 0.000000 0.000000
vn 1.000000 0.000000 0.000000
vn 0.000000 -0.443683 -0.896184
vn 0.000000 -0.443683 -0.896184
vn 0.000000 -0.443683 -0.896184
vn 0.000000 -0.443683 -0.896184
vn -1.000000 -0.000002 0.000000
vn -1.000000 -0.000002 0.000000
vn -1.000000 -0.000002 0.000000
vn -1.000000 -0.000002 0.000000
vn 0.000000 0.778938 0.627101
vn 0.000000 0.778938 0.627101
vn 0.000000 0.778938 0.627101
vn 0.000000 0.778938 0.627101
vn 1.000000 0.000005 0.000000
vn 1.000000 0.000005 0.000000
vn 1.000000 0.000005 0.000000
vn 1.000000 0.000005 0.000000
vn 0.000000 -0.764686 -0.644403
vn 0.000000 -0.764686 -0.644403
vn 0.000000 -0.764686 -0.644403
vn 0.000000 -0.764686 -0.644403
vn -1.000000 0.000000 0.000000
vn -1.000000 0.000000 0.000000
vn -1.000000 0.000000 0.000000
vn -1.000000 0.000000 0.000000
vn 0.000000 0.931471 0.363817
vn 0.000000 0.931471 0.363817
vn 0.000000 0.931471 0.363817
vn 0.000000 0.931471 0.363817
vn 1.000000 0.000000 0.000000
vn 1.000000 0.000000 0.000000
vn 1.000000 0.000000 0.000000
vn 1.000000 0.000000 0.000000
vn 0.000000 -0.928164 -0.372172
vn 0.000000 -0.928164 -0.372172
vn 0.000000 -0.928164 -0.372172
vn 0.000000 -0.928164 -0.372172
vn -1.000000 0.000000 0.000000
vn -1.000000 0.000000 0.000000
vn -1.000000 0.000000 0.000000
vn -1.000000 0.000000 0.000000
vn 0.000000 0.991215 0.132258
vn 0.000000 0.991215 0.132258
vn 0.000000 1.000000 0.000000
vn 0.000000 1.000000 0.000000
vn 1.000000 0.000000 0.000000
vn 1.000000 0.000000 0.000000
vn 1.000000 0.000001 0.000000
vn 1.000000 0.000001 0.000000
vn 0.000000 -0.991363 -0.131145
vn 0.000000 -0.991363 -0.131145
vn 0.000000 -1.000000 0.000000
vn 0.000000 -1.000000 0.000000
vn -1.000000 0.000003 0.000000
vn -1.000000 0.000003 0.000000
vn -1.000000 0.000003 0.000000
vn -1.000000 0.000003 0.000000
vn 0.000000 0.000000 -1.000000
vn 0.000000 0.000000 -1.000000
vn 0.000000 0.000000 -1.000000
vn 0.000000 0.000000 -1.000000
vn 0.000000 0.182026 0.983294
vn 0.000000 0.182026 0.983294
vn 0.000000 0.182026 0.983294
vn 0.000000 0.182026 0.983294
vn 0.000000 -1.000000 0.000000
vn 0.000000 -1.000000 0.000000
vn 0.000000 -1.000000 0.000000
vn 0.000000 -1.000000 0.000000
vn 1.000000 -0.000003 0.000000
vn 1.000000 -0.000003 0.000000
vn 1.000000 -0.000003 0.000000
vn 1.000000 -0.000003 0.000000
vn -1.000000 0.000000 0.000000
vn -1.000000 0.000000 0.000000
vn -1.000000 0.000000 0.000000
vn -1.000000 0.000000 0.000000
vn 0.000000 0.654216 0.756308
vn 0.000000 0.654216 0.756308
vn 0.000000 0.654216 0.756308
vn 0.000000 0.654216 0.756308
vn 0.878722 0.477335 0.000000
vn 0.878721 0.477335 0.000000
vn 0.878721 0.477335 0.000000
vn 0.878722 0.477335 0.000000
vn 0.000000 0.223226 -0.974767
vn 0.000000 0.223226 -0.974767
vn 0.000000 0.223226 -0.974767
vn 0.000000 0.223226 -0.974767
vn -0.878719 0.477340 0.000000
vn -0.878719 0.477340 0.000000
vn -0.878719 0.477340 0.000000
vn -0.878719 0.477340 0.000000
vn 0.000000 0.000000 -1.000000
vn 0.000000 0.000000 -1.000000
vn 0.000000 0.000000 -1.000000
vn 0.000000 0.000000 -1.000000
vn 1.000000 0.000000 0.000000
vn 1.000000 0.000000 0.000000
vn 1.000000 0.000000 0.000000
vn 1.000000 0.000000 0.000000
vn 0.000000 0.000000 1.000000
vn 0.000000 0.000000 1.000000
vn 0.000000 0.000000 1.000000
vn 0.000000 0.000000 1.000000
vn -1.000000 0.000000 0.000000
vn -1.000000 0.000000 0.000000
vn -1.000000 0.000000 0.000000
vn -1.000000 0.000000 0.000000
vn 0.000000 0.283936 -0.958843
vn 0.000000 0.283936 -0.958843
vn 0.000000 0.283936 -0.958843
vn 0.000000 0.283936 -0.958843
vn 1.000000 0.000000 0.000000
vn 1.000000 0.000000 0.000000
vn 1.000000 0.000000 0.000000
vn 1.000000 0.000000 0.000000
vn 0.000000 -0.238333 0.971183
vn 0.000000 -0.238333 0.971183
vn 0.000000 -0.238333 0.971183
vn 0.000000 -0.238333 0.971183
vn -1.000000 0.000000 0.000000
vn -1.000000 0.000000 0.000000
vn -1.000000 0.000000 0.000000
vn -1.000000 0.000000 0.000000
vn 0.000000 0.443679 -0.896186
vn 0.000000 0.443679 -0.896186
vn 0.000000 0.443679 -0.896186
vn 0.000000 0.443679 -0.896186
vn 1.000000 0.000000 0.000000
vn 1.000000 0.000000 0.000000
vn 1.000000 0.000000 0.000000
vn 1.000000 0.000000 0.000000
vn 0.000000 -0.443683 0.896184
vn 0.000000 -0.443683 0.896184
vn 0.000000 -0.443683 0.896184
vn 0.000000 -0.443683 0.896184
vn -1.000000 -0.000002 0.000000
vn -1.000000 -0.000002 0.000000
vn -1.000000 -0.000002 0.000000
vn -1.000000 -0.000002 0.000000
vn 0.000000 0.778939 -0.627100
vn 0.000000 0.778939 -0.627100
vn 0.000000 0.778939 -0.627100
vn 0.000000 0.778939 -0.627100
vn 1.000000 -0.000003 0.000000
vn 1.000000 -0.000003 0.000000
vn 1.000000 -0.000003 0.000000
vn 1.000000 -0.000003 0.000000
vn 0.000000 -0.764686 0.644403
vn 0.000000 -0.764686 0.644403
vn 0.000000 -0.764686 0.644403
vn 0.000000 -0.764686 0.644403
vn -1.000000 0.000000 0.000000
vn -1.000000 0.000000 0.000000
vn -1.000000 0.000000 0.000000
vn -1.000000 0.000000 0.000000
vn 0.000000 0.931470 -0.363818
vn 0.000000 0.931470 -0.363818
vn 0.000000 0.931470 -0.363818
vn 0.000000 0.931470 -0.363818
vn 1.000000 -0.000006 0.000000
vn 1.000000 -0.000006 0.000000
vn 1.000000 -0.000006 0.000000
vn 1.000000 -0.000006 0.000000
vn 0.000000 -0.928164 0.372172
vn 0.000000 -0.928164 0.372172
vn 0.000000 -0.928164 0.372172
vn 0.000000 -0.928164 0.372172
vn -1.000000 0.000000 0.000000
vn -1.000000 0.000000 0.000000
vn -1.000000 0.000000 0.000000
vn -1.000000 0.000000 0.000000
vn 0.000000 0.991215 -0.132258
vn 0.000000 0.991215 -0.132258
vn 1.000000 0.000002 0.000000
vn 1.000000 0.000002 0.000000
vn 0.000000 -0.991363 0.131145
vn 0.000000 -0.991363 0.131145
vn -1.000000 0.000002 0.000000
vn -1.000000 0.000002 0.000000
s off
g polySurface4 pCube23
usemtl initialShadingGroup
f 1/1/1 2/2/2 4/3/3 3/4/4
f 5/5/5 6/6/6 8/7/7 7/8/8
f 9/9/9 10/10/10 11/11/11 12/12/12
f 2/2/13 8/13/14 6/14/15 4/3/16
f 7/15/17 1/1/18 3/4/19 5/16/20
f 7/8/21 8/7/22 10/10/23 9/9/24
f 8/7/25 2/17/26 11/11/27 10/10/28
f 2/17/29 1/18/30 12/12/31 11/11/32
f 1/18/33 7/8/34 9/9/35 12/12/36
f 3/4/37 4/3/38 14/19/39 13/20/40
f 4/3/41 6/6/42 15/21/43 14/19/44
f 6/6/45 5/5/46 16/22/47 15/21/48
f 5/5/49 3/4/50 13/20/51 16/22/52
f 13/20/53 14/19/54 18/23/55 17/24/56
f 14/19/57 15/21/58 19/25/59 18/23/60
f 15/21/61 16/22/62 20/26/63 19/25/64
f 16/22/65 13/20/66 17/24/67 20/26/68
f 17/24/69 18/23/70 22/27/71 21/28/72
f 18/23/73 19/25/74 23/29/75 22/27/76
f 19/25/77 20/26/78 24/30/79 23/29/80
f 20/26/81 17/24/82 21/28/83 24/30/84
f 21/28/85 22/27/86 26/31/87 25/32/88
f 22/27/89 23/29/90 27/33/91 26/31/92
f 23/29/93 24/30/94 28/34/95 27/33/96
f 24/30/97 21/28/98 25/32/99 28/34/100
f 25/32/101 26/31/102 30/35/103 29/36/104
f 26/31/105 27/33/106 31/37/107 30/35/108
f 27/33/109 28/34/110 32/38/111 31/37/112
f 28/34/113 25/32/114 29/36/115 32/38/116
s 1
f 29/36/117 30/35/118 34/39/119 33/40/120
s 2
f 30/35/121 31/37/122 35/41/123 34/39/124
s 3
f 31/37/125 32/38/126 36/42/127 35/41/128
s 4
f 32/38/129 29/36/130 33/40/131 36/42/132
s off
f 37/43/133 39/44/134 40/45/135 38/46/136
f 41/47/137 43/48/138 44/49/139 42/50/140
f 45/51/141 48/52/142 47/53/143 46/54/144
f 38/46/145 40/45/146 42/55/147 44/56/148
f 43/57/149 41/58/150 39/44/151 37/43/152
f 43/48/153 45/51/154 46/54/155 44/49/156
f 44/49/157 46/54/158 47/53/159 38/59/160
f 38/59/161 47/53/162 48/52/163 37/60/164
f 37/60/165 48/52/166 45/51/167 43/48/168
f 39/44/169 49/61/170 50/62/171 40/45/172
f 40/45/173 50/62/174 51/63/175 42/50/176
f 42/50/177 51/63/178 52/64/179 41/47/180
f 41/47/181 52/64/182 49/61/183 39/44/184
f 49/61/185 53/65/186 54/66/187 50/62/188
f 50/62/189 54/66/190 55/67/191 51/63/192
f 51/63/193 55/67/194 56/68/195 52/64/196
f 52/64/197 56/68/198 53/65/199 49/61/200
f 53/65/201 57/69/202 58/70/203 54/66/204
f 54/66/205 58/70/206 59/71/207 55/67/208
f 55/67/209 59/71/210 60/72/211 56/68/212
f 56/68/213 60/72/214 57/69/215 53/65/216
f 57/69/217 61/73/218 62/74/219 58/70/220
f 58/70/221 62/74/222 63/75/223 59/71/224
f 59/71/225 63/75/226 64/76/227 60/72/228
f 60/72/229 64/76/230 61/73/231 57/69/232
f 61/73/233 65/77/234 66/78/235 62/74/236
f 62/74/237 66/78/238 67/79/239 63/75/240
f 63/75/241 67/79/242 68/80/243 64/76/244
f 64/76/245 68/80/246 65/77/247 61/73/248
s 1
f 65/77/249 33/81/120 34/82/119 66/78/250
s 2
f 66/78/251 34/82/124 35/83/123 67/79/252
s 3
f 67/79/253 35/83/128 36/84/127 68/80/254
s 4
f 68/80/255 36/84/132 33/81/131 65/77/256
g default
v 95.270655 17.257381 -94.692756
v 95.270655 27.420351 -94.692756
v 95.270655 17.257381 -104.855728
v 95.270655 27.420351 -104.855728
vt 0.000000 0.000000
vt 1.000000 0.000000
vt 1.000000 1.000000
vt 0.000000 1.000000
vn -1.000000 0.000000 0.000000
vn -1.000000 0.000000 0.000000
vn -1.000000 0.000000 0.000000
vn -1.000000 0.000000 0.000000
s off
g pCube23 polySurface5
usemtl initialShadingGroup
f 69/85/257 70/86/258 72/87/259 71/88/260
